IKResults
version=1
nRows=11
nColumns=55
inDegrees=yes

Units are S.I. units (second, meters, Newtons, ...)
If the header above contains a line with 'inDegrees', this indicates whether rotational values are in degrees (yes) or radians (no).

endheader
time	pelvis_tilt	pelvis_list	pelvis_rotation	pelvis_tx	pelvis_ty	pelvis_tz	hip_flexion_r	hip_adduction_r	hip_rotation_r	hip_flexion_l	hip_adduction_l	hip_rotation_l	flex_extension	lat_bending	axial_rotation	L4_L5_IVDjnt_r3	L4_L5_IVD_bendjnt_r1	L4_L5_IVD_rotjnt_r2	L3_L4_IVDjnt_r3	L3_L4_IVD_bendjnt_r1	L3_L4_IVD_rotjnt_r2	L2_L3_IVDjnt_r3	L2_L3_IVD_bendjnt_r1	L2_L3_IVD_rotjnt_r2	L1_L2_IVDjnt_r3	L1_L2_IVD_bendjnt_r1	L1_L2_IVD_rotjnt_r2	Torso_Rot	Abs_r3	Abs_t1	Abs_t2	LB_wrapjnt_r3	LB_wrapjnt_t1	LB_wrapjnt_t2	SC_y	SC_x	SC_z	SC_y_l	SC_x_l	SC_z_l	arm_flex_r	arm_add_r	arm_rot_r	elbow_flex_r	pro_sup_r	wrist_flex_r	wrist_dev_r	arm_flex_l	arm_add_l	arm_rot_l	elbow_flex_l	pro_sup_l	wrist_flex_l	wrist_dev_l
      7.50000000	     76.87366763	    -79.82426145	     89.95712631	      1.01417740	      0.80052784	     -0.24371420	      0.00000000	     -0.00000000	      0.00000000	      0.00000000	     -0.00000000	      0.00000000	      1.50564027	     -0.43606797	      0.97864329	     12.42242392	     -4.52439839	      2.36749360	     17.66270267	     -6.12956031	      2.36749360	     21.27495376	     -6.24941403	      1.86906863	      0.44293226	     -4.69563202	      1.61986329	     11.53092776	     55.45725971	      0.00000000	      0.00000000	     51.76009965	      0.04976928	      0.01658976	     29.97872144	    -44.89551759	     34.85938922	     29.95712235	    -40.68537439	     -0.12927488	     71.92509267	     20.56971579	      7.38146870	     11.56317646	     88.76149543	     15.06323452	     -7.25882661	     57.05221000	    -36.52467348	     28.56227352	     52.56790379	     88.67951017	      2.09304989	     21.56923114
      7.51000000	     76.83752483	    -80.21160277	     89.95553578	      1.01387778	      0.80115466	     -0.24315180	      0.00000000	     -0.00000000	      0.00000000	      0.00000000	     -0.00000000	      0.00000000	      1.51437291	     -0.43606913	      0.97864377	     12.49447343	     -4.52441047	      2.36749476	     17.76514557	     -6.12957666	      2.36749476	     21.39834756	     -6.24943071	      1.86906955	      0.44550125	     -4.69564454	      1.61986408	     11.53093342	     55.77890939	      0.00000000	      0.00000000	     52.06030596	      0.05005794	      0.01668598	     29.97876883	    -44.89744985	     34.85907648	     29.95743852	    -40.81308606	     -0.12769075	     71.91703256	     20.78477945	      7.60802796	     11.38526561	     88.76781454	     15.27432547	     -7.27121107	     56.78773389	    -35.93342690	     28.07462437	     52.22788791	     88.71266521	      1.00034235	     22.69614853
      7.52000000	     76.75522759	    -80.22348445	     89.95562674	      1.01407996	      0.80190788	     -0.24354381	      0.00000000	     -0.00000000	      0.00000000	      0.00000000	     -0.00000000	      0.00000000	      1.51579742	     -0.43606933	      0.97864491	     12.50622645	     -4.52441259	      2.36749752	     17.78185650	     -6.12957953	      2.36749752	     21.41847608	     -6.24943363	      1.86907173	      0.44592032	     -4.69564674	      1.61986597	     11.53094685	     55.83137825	      0.00000000	      0.00000000	     52.10927689	      0.05010503	      0.01670168	     29.97882827	    -44.89872589	     34.86018770	     29.95763377	    -40.71319522	     -0.12713449	     71.94345045	     21.03437552	      7.66283971	     11.16464480	     88.77920611	     15.31193663	     -7.23549517	     56.75474136	    -35.70458706	     28.18834316	     51.92885200	     88.71935984	      0.90428990	     22.76674527
      7.53000000	     76.62849709	    -80.26172059	     89.95541202	      1.01418060	      0.80242607	     -0.24370079	      0.00000000	     -0.00000000	      0.00000000	      0.00000000	     -0.00000000	      0.00000000	      1.51706141	     -0.43606978	      0.97864541	     12.51665508	     -4.52441725	      2.36749871	     17.79668433	     -6.12958585	      2.36749871	     21.43633640	     -6.24944007	      1.86907267	      0.44629216	     -4.69565158	      1.61986679	     11.53095265	     55.87793462	      0.00000000	      0.00000000	     52.15272950	      0.05014681	      0.01671560	     29.97886869	    -44.89866581	     34.86208918	     29.95773843	    -40.55485341	     -0.12665015	     71.85263676	     21.28060359	      7.71393031	     11.07949459	     88.79072544	     15.32779260	     -7.22361879	     56.60374937	    -35.55248717	     28.23731892	     51.87835228	     88.72584882	      0.85951536	     22.78231891
      7.54000000	     76.54662661	    -80.65156636	     89.95382981	      1.01375670	      0.80321722	     -0.24282243	      0.00000000	     -0.00000000	      0.00000000	      0.00000000	     -0.00000000	      0.00000000	      1.52460846	     -0.43607119	      0.97864590	     12.57892275	     -4.52443188	      2.36749991	     17.88521902	     -6.12960567	      2.36749991	     21.54297758	     -6.24946028	      1.86907361	      0.44851237	     -4.69566676	      1.61986761	     11.53095849	     56.15591535	      0.00000000	      0.00000000	     52.41217813	      0.05039628	      0.01679876	     29.97890520	    -44.89740710	     34.86307835	     29.95807296	    -40.55482652	     -0.12487705	     71.71510687	     21.46057797	      8.17876994	     11.01003946	     88.79527342	     15.45153309	     -7.26074693	     56.21829013	    -35.04175531	     27.67276171	     51.62267944	     88.75869268	      0.12455139	     22.77084416
      7.55000000	     76.42004631	    -80.78170604	     89.95293060	      1.01379053	      0.80391425	     -0.24273488	      0.00000000	     -0.00000000	      0.00000000	      0.00000000	     -0.00000000	      0.00000000	      1.52721044	     -0.43607097	      0.97864430	     12.60039061	     -4.52442958	      2.36749602	     17.91574289	     -6.12960256	      2.36749602	     21.57974398	     -6.24945711	      1.86907055	      0.44927782	     -4.69566438	      1.61986495	     11.53093958	     56.25175404	      0.00000000	      0.00000000	     52.50162756	      0.05048229	      0.01682743	     29.97888132	    -44.89511130	     34.86360561	     29.95771081	    -40.48210399	     -0.12546609	     71.53641259	     21.62126301	      8.72225735	     11.06762499	     88.79163343	     15.25205629	     -7.27802835	     55.64089772	    -34.87958755	     27.13467282	     51.95545463	     88.75508552	     -0.93239818	     21.77507783
      7.56000000	     76.27092525	    -80.95736783	     89.95196428	      1.01373316	      0.80466041	     -0.24243021	      0.00000000	     -0.00000000	      0.00000000	      0.00000000	     -0.00000000	      0.00000000	      1.53024445	     -0.43607148	      0.97864385	     12.62542300	     -4.52443483	      2.36749494	     17.95133494	     -6.12960968	      2.36749494	     21.62261506	     -6.24946437	      1.86906969	      0.45017037	     -4.69566983	      1.61986421	     11.53093429	     56.36350578	      0.00000000	      0.00000000	     52.60592916	      0.05058258	      0.01686086	     29.97887395	    -44.89210210	     34.86487592	     29.95770804	    -40.36844658	     -0.12519755	     71.28655742	     21.79646330	      8.89249648	     11.17473235	     88.78132803	     15.25105273	     -7.40373211	     55.10302494	    -34.75554859	     26.76748665	     52.31291564	     88.74723196	     -1.75112946	     21.02689945
      7.57000000	     76.09956085	    -81.12386733	     89.95102198	      1.01361727	      0.80552794	     -0.24222997	      0.00000000	     -0.00000000	      0.00000000	      0.00000000	     -0.00000000	      0.00000000	      1.53310085	     -0.43607169	      0.97864306	     12.64898999	     -4.52443704	      2.36749303	     17.98484344	     -6.12961266	      2.36749303	     21.66297648	     -6.24946741	      1.86906818	      0.45101067	     -4.69567212	      1.61986290	     11.53092500	     56.46871559	      0.00000000	      0.00000000	     52.70412497	      0.05067700	      0.01689233	     29.97884374	    -44.88853210	     34.86575431	     29.95768525	    -40.22723627	     -0.12493718	     71.00426124	     21.96987543	      8.93492528	     11.34043597	     88.78982973	     15.18684288	     -7.60273872	     54.50152031	    -34.72395016	     26.40743552	     52.83116970	     88.76384951	     -2.50546897	     20.26131391
      7.58000000	     75.88621350	    -81.27308484	     89.95020565	      1.01347615	      0.80629132	     -0.24187930	      0.00000000	     -0.00000000	      0.00000000	      0.00000000	     -0.00000000	      0.00000000	      1.53524750	     -0.43607246	      0.97864324	     12.66670113	     -4.52444503	      2.36749347	     18.01002585	     -6.12962349	      2.36749347	     21.69330902	     -6.24947845	      1.86906853	      0.45164218	     -4.69568042	      1.61986320	     11.53092715	     56.54778317	      0.00000000	      0.00000000	     52.77792136	      0.05074796	      0.01691599	     29.97883912	    -44.88433611	     34.86719988	     29.95787893	    -40.17488435	     -0.12415257	     70.70075761	     22.09599685	      9.30218101	     11.56687802	     88.79747506	     15.19595196	     -7.63049340	     53.78595628	    -34.54420259	     25.77413160	     53.28761366	     88.76592358	     -2.97576621	     19.54872468
      7.59000000	     75.66907870	    -81.48185060	     89.94921258	      1.01338981	      0.80716516	     -0.24145956	      0.00000000	     -0.00000000	      0.00000000	      0.00000000	     -0.00000000	      0.00000000	      1.53848397	     -0.43607330	      0.97864345	     12.69340390	     -4.52445376	      2.36749398	     18.04799293	     -6.12963531	      2.36749398	     21.73904085	     -6.24949050	      1.86906894	      0.45259429	     -4.69568947	      1.61986355	     11.53092963	     56.66699200	      0.00000000	      0.00000000	     52.88918291	      0.05085494	      0.01695165	     29.97885474	    -44.88061526	     34.86844211	     29.95798619	    -39.99574733	     -0.12393356	     70.40036719	     22.20537123	      9.64717722	     11.79976865	     88.78701505	     15.29132349	     -7.85148893	     53.20633116	    -34.63398372	     25.58098058	     53.94044031	     88.76383582	     -3.53760944	     19.04418966
      7.60000000	     75.41644968	    -81.67372065	     89.94799696	      1.01327487	      0.80811881	     -0.24102038	      0.00000000	     -0.00000000	      0.00000000	      0.00000000	     -0.00000000	      0.00000000	      1.54129823	     -0.43607425	      0.97864365	     12.71662325	     -4.52446360	      2.36749446	     18.08100714	     -6.12964865	      2.36749446	     21.77880690	     -6.24950410	      1.86906931	      0.45342220	     -4.69569969	      1.61986388	     11.53093195	     56.77064985	      0.00000000	      0.00000000	     52.98593022	      0.05094797	      0.01698266	     29.97886732	    -44.87633478	     34.86967387	     29.95820557	    -39.90346827	     -0.12315427	     70.10287843	     22.32086617	     10.07164170	     12.02799800	     88.78449328	     15.20095165	     -7.88501848	     52.55272266	    -34.56843336	     25.18702326	     54.46535103	     88.76519061	     -3.87750534	     18.42830736
